<svg width="11" height="16" viewBox="0 0 11 16" fill="none" xmlns="http://www.w3.org/2000/svg">
<path d="M5.00313 0C2.2394 0 0 2.23039 0 4.99312C0 9.77011 5.00313 16 5.00313 16C5.00313 16 10.0063 9.7691 10.0063 4.99312C10.0063 2.23139 7.76685 0 5.00313 0ZM5.00313 7.75585C4.28659 7.75585 3.59941 7.47121 3.09274 6.96454C2.58608 6.45788 2.30144 5.77069 2.30144 5.05416C2.30144 4.33763 2.58608 3.65044 3.09274 3.14378C3.59941 2.63711 4.28659 2.35247 5.00313 2.35247C5.71966 2.35247 6.40684 2.63711 6.91351 3.14378C7.42017 3.65044 7.70482 4.33763 7.70482 5.05416C7.70482 5.77069 7.42017 6.45788 6.91351 6.96454C6.40684 7.47121 5.71966 7.75585 5.00313 7.75585Z" fill="#3B406C"/>
</svg>
